<?xml version="1.0" encoding="UTF-8" standalone="no"?>
<!-- Created with Inkscape (http://www.inkscape.org/) -->

<svg
   xmlns:dc="http://purl.org/dc/elements/1.1/"
   xmlns:cc="http://creativecommons.org/ns#"
   xmlns:rdf="http://www.w3.org/1999/02/22-rdf-syntax-ns#"
   xmlns:svg="http://www.w3.org/2000/svg"
   xmlns="http://www.w3.org/2000/svg"
   xmlns:xlink="http://www.w3.org/1999/xlink"
   xmlns:sodipodi="http://sodipodi.sourceforge.net/DTD/sodipodi-0.dtd"
   xmlns:inkscape="http://www.inkscape.org/namespaces/inkscape"
   width="299.89246mm"
   height="327.56116mm"
   viewBox="0 0 299.89246 327.56116"
   version="1.1"
   id="svg8"
   inkscape:version="0.92.1 r15371"
   sodipodi:docname="sleepovers_logo.svg">
  <defs
     id="defs2" />
  <sodipodi:namedview
     id="base"
     pagecolor="#ffffff"
     bordercolor="#666666"
     borderopacity="1.0"
     inkscape:pageopacity="0.0"
     inkscape:pageshadow="2"
     inkscape:zoom="0.35"
     inkscape:cx="413.76711"
     inkscape:cy="654.08961"
     inkscape:document-units="mm"
     inkscape:current-layer="layer1"
     showgrid="false"
     inkscape:pagecheckerboard="true"
     fit-margin-top="0"
     fit-margin-left="0"
     fit-margin-right="0"
     fit-margin-bottom="0"
     inkscape:window-width="1920"
     inkscape:window-height="1017"
     inkscape:window-x="1912"
     inkscape:window-y="32"
     inkscape:window-maximized="1" />
  <metadata
     id="metadata5">
    <rdf:RDF>
      <cc:Work
         rdf:about="">
        <dc:format>image/svg+xml</dc:format>
        <dc:type
           rdf:resource="http://purl.org/dc/dcmitype/StillImage" />
        <dc:title></dc:title>
      </cc:Work>
    </rdf:RDF>
  </metadata>
  <g
     inkscape:label="Layer 1"
     inkscape:groupmode="layer"
     id="layer1"
     transform="translate(44.475044,-40.576199)">
    <image
       sodipodi:absref="D:\Source\GitHubClones\group-1-sleepovers-web-portal-cosc499-team1-sleepovers\img\sleepovers_icon.png"
       xlink:href="sleepovers_icon.png"
       width="529.16669"
       height="529.16669"
       preserveAspectRatio="none"
       id="image4506"
       x="-157.99406"
       y="-67.369057" />
    <path
       style="fill:#FF0080;stroke-width:0;"
       d="m 53.23822,367.88274 c -2.928689,-0.69839 -5.260319,-3.83082 -6.31943,-8.48982 -0.697217,-3.06705 -0.853482,-13.17111 -0.25872,-16.72889 1.202185,-7.19129 3.802362,-10.22844 8.768271,-10.24183 1.85026,-0.005 2.351791,0.0982 3.570809,0.73506 1.821619,0.95163 3.171476,2.72635 4.165695,5.47683 1.158341,3.20452 1.431322,5.97484 1.290773,13.09917 -0.136742,6.93135 -0.484826,8.92406 -2.082414,11.92141 -1.900727,3.56614 -5.304423,5.14152 -9.134984,4.22807 z m 3.420621,-6.29978 c 2.150298,-2.37606 2.774379,-14.27123 1.074037,-20.47147 -0.414581,-1.51175 -1.601391,-3.13886 -2.289477,-3.13886 -0.20664,0 -0.689936,0.31422 -1.073989,0.69829 -2.685595,2.68557 -3.074935,17.46583 -0.58683,22.27728 0.846455,1.63687 1.782429,1.84343 2.876259,0.63476 z m -30.116736,5.69227 c -0.06952,-0.1819 -0.09555,-8.01026 -0.05784,-17.39635 l 0.06856,-17.06563 h 6.482292 6.482292 v 2.77813 2.77812 l -3.505729,0.0738 -3.50573,0.0738 v 4.49021 4.49025 h 3.175001 3.175 v 2.77812 2.77813 h -3.175 -3.175001 v 7.27604 7.27604 h -2.918719 c -2.091174,0 -2.95456,-0.0938 -3.045124,-0.33073 z m 46.244753,-17.05694 0.06805,-17.40504 2.910416,-0.0769 c 6.050733,-0.15999 9.044142,0.65291 11.305139,3.07009 1.929828,2.06317 2.415484,3.68972 2.424231,8.11935 0.0089,4.53232 -0.430853,5.92736 -2.611088,8.28228 l -1.404559,1.51707 0.978649,2.64096 c 0.538255,1.45251 1.59712,4.31208 2.353034,6.35461 0.755912,2.0425 1.374387,3.97727 1.374387,4.29948 0,0.57168 -0.07551,0.58581 -3.129169,0.58581 H 83.92678 l -1.629739,-4.43177 c -0.896355,-2.43747 -1.89322,-5.17591 -2.215255,-6.08542 -1.052492,-2.97248 -1.256102,-2.30663 -1.334932,4.36563 l -0.07111,6.01927 -2.978468,0.0748 -2.978467,0.0748 z m 8.005551,-0.83701 c 1.965293,-0.90247 2.760639,-2.44407 2.746383,-5.32324 -0.01318,-2.65988 -0.751314,-4.14483 -2.504678,-5.03875 -0.558279,-0.28461 -1.287532,-0.5175 -1.620565,-0.5175 h -0.605515 v 5.68855 c 0,6.39625 -0.09564,6.14608 1.984375,5.19094 z m 30.559381,0.75324 v -17.47147 l 2.84427,0.0751 2.84427,0.0751 0.0684,14.61823 0.0684,14.61823 h 3.43736 3.43734 v 2.77813 2.77812 h -6.35 -6.35 z m 20.17257,0.0751 0.068,-17.39636 h 2.91042 2.91041 l 0.0681,17.39636 0.068,17.39635 h -3.04652 -3.04652 z m 14.93742,0 0.0527,-17.39636 h 6.42957 6.42958 v 2.77813 2.77812 l -3.50573,0.0738 -3.50573,0.0738 v 4.48183 4.48183 l 3.10886,0.0746 3.10885,0.0745 0.0754,2.71198 0.0754,2.71198 h -3.18426 -3.18426 v 7.27604 7.27604 h -2.97656 -2.97656 z m 20.78133,0 0.068,-17.39636 h 6.74688 6.74687 v 2.77813 2.77812 l -3.90911,0.0733 -3.90914,0.0732 0.0727,4.29239 0.0727,4.29236 3.43958,0.13229 3.43958,0.1323 0.0754,2.71198 c 0.0572,2.0575 -0.007,2.72073 -0.26458,2.74822 -0.18701,0.0199 -1.76874,0.0497 -3.51499,0.0661 l -3.175,0.0299 v 4.49791 4.49792 l 3.9026,0.0732 3.9026,0.0732 v 2.77103 2.77106 h -6.88107 -6.88107 z m -207.292069,-28.9159 c -0.832853,-0.12848 -2.112775,-0.4911 -2.844271,-0.80577 l -1.329992,-0.57216 v -3.01011 -3.01014 h 0.670253 c 0.368642,0 1.233837,0.28559 1.922661,0.63463 0.688825,0.34907 1.764435,0.77253 2.390246,0.94105 0.997694,0.26865 1.27729,0.23889 2.269985,-0.24167 1.209506,-0.58553 1.742689,-1.40484 1.742689,-2.67788 0,-1.56549 -1.102672,-3.42111 -4.311219,-7.25509 -2.291532,-2.7382 -4.089392,-5.53513 -4.545727,-7.07178 -0.518713,-1.7467 -0.521433,-5.5426 -0.0052,-7.23384 0.572715,-1.87621 1.917092,-3.55312 3.591476,-4.47979 1.360183,-0.7528 1.591215,-0.79375 4.476903,-0.79375 2.316576,0 3.342633,0.11573 4.29948,0.4849 l 1.256771,0.4849 v 3.15312 c 0,3.01321 -0.02432,3.15312 -0.548199,3.15312 -0.301508,0 -1.045649,-0.29152 -1.653645,-0.64778 -1.530874,-0.8971 -3.057126,-1.10704 -4.105752,-0.56478 -2.347521,1.21396 -2.206241,3.59886 0.399688,6.74706 0.411691,0.49736 1.442812,1.74014 2.291373,2.76169 2.092902,2.51958 2.968395,3.8295 3.963697,5.93056 0.802452,1.69397 0.843463,1.93493 0.843463,4.95554 0,2.75199 -0.081,3.35127 -0.60797,4.49792 -0.783135,1.70405 -2.454379,3.40235 -3.996093,4.06077 -1.48318,0.63341 -4.1333,0.8736 -6.170634,0.55928 z m 156.030949,-0.0445 c -0.94117,-0.32898 -2.40681,-1.37165 -3.25136,-2.31306 -1.55326,-1.73141 -2.75198,-5.44748 -3.26479,-10.121 -0.33372,-3.04115 -0.16542,-10.45761 0.29866,-13.16181 0.74488,-4.34067 2.36529,-7.47477 4.72149,-9.13199 1.05521,-0.74215 1.34445,-0.81092 3.76459,-0.89479 2.25918,-0.0783 2.78419,-0.0122 3.7977,0.47847 2.48714,1.20401 4.27752,4.16187 5.24177,8.65987 0.46437,2.16617 0.55957,3.55457 0.57703,8.41502 0.0225,6.28986 -0.22246,8.48201 -1.32019,11.80999 -1.10236,3.34209 -3.13267,5.61354 -5.64013,6.31005 -1.21589,0.33774 -3.89228,0.31017 -4.92477,-0.0507 z m 4.15566,-6.58632 c 0.25804,-0.34928 0.72723,-1.58756 1.04267,-2.75172 0.50678,-1.87047 0.57568,-2.82448 0.5924,-8.20209 0.0206,-6.61045 -0.19529,-8.35805 -1.31538,-10.65098 -1.20896,-2.47486 -2.55609,-2.4651 -3.69694,0.0268 -0.94208,2.05779 -1.1693,3.48969 -1.34993,8.50749 -0.26131,7.25852 0.53215,11.9076 2.34103,13.71645 0.698,0.698 0.80447,0.72776 1.33765,0.37372 0.31864,-0.21156 0.79045,-0.67043 1.0485,-1.0197 z m 124.56414,6.64099 c -0.65484,-0.11637 -1.87523,-0.47019 -2.71198,-0.78627 l -1.52135,-0.57467 v -3.02369 -3.02371 h 0.77861 c 0.42826,0 1.19915,0.2481 1.7131,0.55134 1.39465,0.82288 3.46051,1.30202 4.42328,1.0259 0.93586,-0.26842 2.06669,-1.46831 2.10981,-2.2387 0.11743,-2.09872 -0.47318,-3.20421 -4.17002,-7.8052 -1.93479,-2.40803 -3.43709,-4.57531 -4.03479,-5.82084 -0.92307,-1.92352 -0.95228,-2.07769 -0.95228,-5.02708 0,-2.72336 0.072,-3.19545 0.68558,-4.49792 1.44865,-3.07475 3.89856,-4.49791 7.74298,-4.49791 2.09939,0 4.68204,0.53498 5.39592,1.11773 0.22812,0.18621 0.33072,1.17152 0.33072,3.17579 v 2.90581 l -0.99218,-0.13313 c -0.54571,-0.0732 -1.70839,-0.40331 -2.58374,-0.73351 -1.78025,-0.67159 -2.60675,-0.59341 -3.70393,0.35034 -0.90826,0.78126 -1.14871,2.41702 -0.54292,3.69358 0.24148,0.50893 1.53794,2.28169 2.88099,3.93946 3.33553,4.1171 4.29379,5.47481 5.14178,7.28504 0.67496,1.44087 0.72605,1.79194 0.72605,4.98951 0,3.902 -0.33364,5.00092 -2.07201,6.82448 -1.80903,1.89767 -5.45708,2.86993 -8.64362,2.30365 z m -99.18364,-17.47793 c -2.0591,-11.01754 -3.17662,-17.5864 -3.01871,-17.74431 0.1379,-0.1379 1.55022,-0.21672 3.13851,-0.17518 l 2.8878,0.0755 0.22447,1.5875 c 0.41108,2.9074 3.07723,19.00031 3.16185,19.08493 0.0458,0.0458 0.3551,-1.66971 0.68731,-3.81228 0.33221,-2.14257 0.82145,-5.14572 1.08717,-6.67369 0.26572,-1.52797 0.75787,-4.47477 1.09363,-6.54844 l 0.61052,-3.77031 h 2.85137 2.85138 l -0.007,1.12448 c -0.004,0.61846 -1.40419,8.56588 -3.11192,17.66094 l -3.10496,16.53646 -3.04099,0.074 -3.04102,0.074 -3.26945,-17.49359 z m -158.520537,-0.39013 v -17.60344 l 2.976563,0.0748 2.9765623,0.0748 0.068368,14.75052 0.068366,14.75052 h 3.4373637 3.43736097 v 2.77813 2.77812 H -6.520095 -13.002387 Z m 28.903841,0.0748 0.06804,-17.52865 6.813021,-0.0706 6.813022,-0.0706 v 2.91488 2.91489 H 25.75268 21.909824 l 0.07254,4.43177 0.07254,4.43177 3.373438,0.0741 3.373438,0.0741 v 2.77021 2.77022 h -3.439584 -3.439583 v 4.6302 4.63021 h 3.96875 3.96875 v 2.77813 2.77812 h -7.013348 -7.013348 z m 30.627412,-0.0661 v -17.59479 h 6.888118 6.888117 l -0.0751,2.84427 -0.0751,2.84427 -3.902604,0.0732 -3.902605,0.0732 v 4.34234 4.34234 l 1.166252,0.17489 c 0.64144,0.0962 2.219018,0.13324 3.505729,0.0823 l 2.339478,-0.0925 0.0751,2.84428 0.0751,2.84427 h -3.587073 -3.587075 l 0.0724,4.56406 0.07239,4.56406 3.902604,0.0732 3.902605,0.0732 v 2.77103 2.77106 h -6.879167 -6.879167 z m 30.427084,0 v -17.59479 l 3.638021,0.005 c 6.564522,0.008 9.142001,1.0056 11.326557,4.38269 1.445773,2.23501 1.768596,3.82921 1.647036,8.13361 -0.08742,3.09536 -0.209783,4.01465 -0.700079,5.25952 -1.230998,3.12555 -4.281948,5.45862 -7.925041,6.06025 l -1.901077,0.31396 v 5.51749 5.51746 H 79.998659 76.95595 V 303.4444 Z m 8.615924,-0.25958 c 1.4444,-1.1017 2.098757,-2.81009 2.079445,-5.42896 -0.01839,-2.49222 -0.500808,-3.79428 -1.873742,-5.05722 -0.597178,-0.54935 -2.117318,-1.29278 -2.643399,-1.29278 -0.05105,0 -0.09281,2.87239 -0.09281,6.38307 v 6.38308 l 0.837801,-0.16757 c 0.46079,-0.0922 1.222507,-0.46098 1.692705,-0.81962 z m 91.491356,16.86219 c 0.0902,-0.54571 0.16528,-8.46537 0.1669,-17.59927 l 0.003,-16.60707 6.81302,0.0706 6.81302,0.0706 v 2.77813 2.77812 l -3.90898,0.0733 -3.90895,0.0732 0.0725,4.42468 0.0725,4.42465 3.37344,-0.0159 3.37344,-0.0159 v 2.86015 2.86015 h -3.43958 -3.43959 v 4.6302 4.63021 h 3.96875 3.96875 v 2.77813 2.77812 h -7.04606 -7.0461 z m 30.59689,-16.60261 v -17.59479 l 3.90261,0.005 c 2.3445,0.003 4.61036,0.15457 5.67534,0.38028 3.2445,0.6876 5.50777,2.65232 6.7192,5.83282 0.41214,1.08201 0.50337,2.02158 0.50096,5.15938 -0.004,4.68759 -0.45649,6.1355 -2.6171,8.36617 l -1.36059,1.40476 0.44418,1.26608 c 0.24431,0.69636 1.28878,3.56616 2.32106,6.37733 1.03227,2.8112 1.87684,5.40081 1.87684,5.75469 v 0.64347 h -3.12817 -3.12814 l -2.2353,-6.1314 c -1.22942,-3.37225 -2.37215,-6.17702 -2.53945,-6.23277 -0.48718,-0.1624 -0.67895,2.38932 -0.57084,7.59492 l 0.099,4.76925 h -2.97982 -2.97982 V 303.4444 Z m 9.44142,-1.83912 c 1.38483,-1.52146 1.84528,-3.31674 1.4287,-5.5703 -0.47043,-2.54479 -1.66849,-3.93388 -3.66869,-4.2537 -1.00539,-0.16079 -1.04431,-0.13865 -1.2097,0.68834 -0.22294,1.11474 -0.22209,9.60747 0,10.18892 0.13645,0.35554 0.39587,0.41862 1.25677,0.30551 0.86159,-0.11319 1.31268,-0.39283 2.19189,-1.35877 z M 11.789406,255.62106 c -0.07503,-0.32742 -0.468977,-3.22575 -0.875448,-6.4407 l -0.73904,-5.84541 -1.1991338,1.14906 c -0.6595216,0.63195 -1.4457469,1.14903 -1.7471655,1.14903 -0.3014186,0 -0.9285764,-0.39262 -1.3936848,-0.87249 -1.1112474,-1.14652 -1.1434737,-2.26946 -0.090559,-3.15542 l 0.7550971,-0.63537 -5.0545764,-0.60219 c -6.2796793,-0.74814 -6.2451988,-0.7402 -6.2451988,-1.43886 0,-0.38505 2.8893586,-3.45292 9.1929218,-9.7609 5.0561057,-5.05966 9.3423564,-9.19935 9.5250004,-9.19935 0.182642,0 0.332079,-0.15291 0.332079,-0.33978 0,-0.18685 0.655841,-0.98745 1.457425,-1.77909 l 1.457423,-1.4393 6.089793,0.75824 c 3.349385,0.41706 6.14221,0.71162 6.206276,0.65463 1.436238,-1.27802 69.19117,-69.1879 69.19117,-69.34943 0,-0.12811 0.886632,-1.09684 1.970295,-2.15274 l 1.97029,-1.9198 L 55.305426,97.114799 C 20.678692,62.488473 7.939914,49.906982 7.725022,50.121873 7.5636183,50.283277 7.1583216,50.375487 6.8243618,50.326785 6.3405976,50.256239 5.7427557,49.360524 3.8834306,45.920544 2.599876,43.545808 1.549697,41.372917 1.549697,41.091898 c 0,-0.790506 1.4295597,-0.653521 2.9512738,0.2828 0.7095067,0.436562 1.3464937,0.79375 1.4155315,0.79375 0.069038,0 1.3284385,0.671901 2.7986726,1.493118 l 2.6731491,1.493115 -0.118909,0.954281 -0.118912,0.954278 47.187281,47.202952 47.187276,47.202958 7.82811,-7.83079 c 4.30546,-4.30693 7.94888,-7.87104 8.09649,-7.92024 0.50001,-0.16667 59.22296,-59.038483 59.22296,-59.373089 0,-0.182686 2.70613,-3.030363 6.01361,-6.328169 5.24568,-5.230321 6.00387,-6.089148 5.93712,-6.725336 -0.0801,-0.76395 1.04764,-1.658326 10.14198,-8.043032 1.45521,-1.021635 2.98238,-2.132586 3.39373,-2.468782 1.00039,-0.817613 2.03023,-0.822878 2.03023,-0.01037 0,0.644991 -0.74435,1.771291 -6.48229,9.808584 -3.39641,4.757436 -3.77029,5.189043 -4.50009,5.194739 -0.68233,0.0053 -1.66351,0.874435 -6.877,6.091627 -3.34459,3.346979 -6.26067,6.08719 -6.48012,6.089354 -0.41727,0.0041 -59.00425,58.484984 -59.00425,58.897374 0,0.13 -3.56656,3.80143 -7.92568,8.15873 l -7.92567,7.92237 37.95977,37.98119 37.95977,37.98119 3.23726,0.0251 c 3.43263,0.0265 5.15162,0.2984 8.46278,1.33834 1.76466,0.55425 2.05052,0.72758 2.05052,1.24341 0,0.32965 0.17481,0.83048 0.38846,1.11297 0.21365,0.28247 0.39309,0.69218 0.39878,0.91046 0.009,0.35349 2.8339,2.90796 3.46215,3.1309 0.13669,0.0485 0.24853,0.37594 0.24853,0.7276 0,0.47329 -0.14444,0.63942 -0.55595,0.63942 -0.37957,0 0.0392,0.39867 1.32009,1.25677 1.52895,1.02428 1.87653,1.38573 1.87883,1.95395 0.003,0.44005 0.23493,0.8492 0.63204,1.10942 0.38269,0.25075 0.70001,0.78973 0.80994,1.37565 0.11705,0.62402 0.50324,1.24653 1.09636,1.76731 1.41792,1.24495 3.28535,3.84445 3.28535,4.57327 0,0.47596 0.3592,0.92152 1.32292,1.64103 0.88773,0.66272 1.32292,1.17922 1.32292,1.57003 0,0.53182 -0.17225,0.59857 -1.98271,0.76822 -1.09048,0.10218 -2.76159,0.13618 -3.71353,0.0756 l -1.73086,-0.1102 0.17103,0.77867 c 0.0941,0.42828 0.0865,2.13082 -0.0167,3.78346 -0.18232,2.91806 -0.20555,3.00477 -0.80528,3.00477 -0.3528,0 -0.68382,-0.19849 -0.77222,-0.46302 -0.27601,-0.82622 -1.93061,-2.4474 -2.49785,-2.4474 -0.64233,0 -3.30499,-1.95607 -4.47209,-3.28536 -0.51718,-0.58901 -1.1439,-0.97941 -1.75692,-1.09442 -0.52988,-0.0994 -1.17337,-0.45897 -1.44944,-0.80992 -0.27305,-0.34713 -0.77697,-0.6324 -1.11982,-0.63399 -0.47665,-0.003 -0.91919,-0.4444 -1.88015,-1.87883 -0.8581,-1.28093 -1.25678,-1.69966 -1.25678,-1.32009 0,1.00695 -1.1294,0.69612 -2.06586,-0.56854 -1.31667,-1.77808 -2.10955,-2.57968 -2.55164,-2.57968 -0.22527,0 -0.4105,-0.0893 -0.41164,-0.19844 -0.003,-0.23672 -1.28297,-0.8599 -1.76692,-0.8599 -0.45791,0 -0.95443,-1.25814 -1.67835,-4.2528 -0.46009,-1.90326 -0.60892,-3.32455 -0.62831,-5.99986 l -0.0255,-3.50591 -37.89249,-37.89208 -37.89249,-37.89208 -2.13168,1.97496 c -1.17242,1.08622 -17.567969,17.37083 -36.434558,36.18802 l -34.302893,34.21308 0.737415,5.739 c 1.189496,9.2574 1.238915,8.06619 -0.403637,9.72942 -0.778672,0.78846 -1.568662,1.43356 -1.755535,1.43356 -0.186872,0 -0.339767,0.15029 -0.339767,0.33396 0,0.18367 -4.142235,4.46992 -9.204966,9.525 -9.316672,9.30259 -10.136756,9.97694 -10.453243,8.59573 z m 11.985292,-88.59382 c -3.081645,-0.33968 -4.352245,-0.79066 -4.432099,-1.57309 -0.0587,-0.57516 0.172421,-0.75961 1.976557,-1.57736 5.763405,-2.61238 9.827099,-7.17268 12.029242,-13.49928 0.837319,-2.40556 0.872982,-2.67014 0.872982,-6.47677 0,-3.80288 -0.03641,-4.0738 -0.871236,-6.48229 -2.101961,-6.06423 -6.154508,-10.6642 -11.720198,-13.30339 -2.091741,-0.99188 -2.346886,-1.18904 -2.287601,-1.76773 0.101708,-0.99277 1.734659,-1.37269 6.562394,-1.52682 3.158895,-0.10084 4.59059,-0.0329 6.16479,0.29268 9.33355,1.93022 16.410152,9.34355 17.911123,18.76338 0.400359,2.51258 0.191098,7.78373 -0.406596,10.24188 -0.588986,2.42234 -2.477439,6.17303 -4.246401,8.43383 -2.711062,3.46486 -6.149592,5.89364 -10.386267,7.33626 -3.809347,1.29711 -6.884678,1.61071 -11.16669,1.1387 z m 153.193752,0.0482 c -9.88673,-1.41424 -17.59193,-8.81189 -19.45999,-18.68325 -0.56648,-2.99352 -0.39315,-7.7669 0.39208,-10.79815 2.10193,-8.11378 9.05428,-14.73682 17.31362,-16.49347 2.49108,-0.52981 7.9302,-0.53141 10.39127,-0.003 8.9376,1.91879 15.89887,8.95126 17.7015,17.88256 0.61307,3.03764 0.41958,8.84309 -0.38724,11.61864 -2.34741,8.07522 -8.74279,14.12765 -16.9554,16.0462 -2.06965,0.48349 -6.98206,0.71859 -8.99584,0.43053 z M 102.8102,86.552304 c -0.81838,-1.480309 -1.61552,-2.984106 -5.645183,-10.64948 -0.611997,-1.164166 -1.391042,-2.308595 -1.731209,-2.543177 -0.554236,-0.382207 -4.832591,-2.812392 -11.407995,-6.479959 -2.135936,-1.19136 -2.316901,-1.355656 -2.248958,-2.0418 0.06819,-0.688636 0.624842,-1.038402 7.217638,-4.535123 7.983535,-4.234346 6.981743,-3.371627 9.84355,-8.477025 5.579677,-9.954014 5.411117,-9.689418 6.118517,-9.604767 0.58199,0.06964 1.14322,0.986594 4.42122,7.223517 l 3.75462,7.14375 5.39354,3.114649 c 2.96645,1.713058 6.19723,3.543509 7.17949,4.06767 1.55083,0.827558 1.78594,1.050263 1.78594,1.691698 0,0.681554 -0.29157,0.891416 -3.77031,2.713776 -11.07313,5.800717 -10.54632,5.489321 -11.23598,6.641759 -0.35714,0.596768 -1.71866,2.990032 -3.02565,5.318366 -4.69356,8.361376 -4.5077,8.069792 -5.14352,8.069792 -0.45167,0 -0.80762,-0.390922 -1.50571,-1.653646 z"
       id="path4509"
       inkscape:connector-curvature="0" />
  </g>
</svg>
