<?xml version="1.0" encoding="UTF-8" standalone="no"?>
<!-- Created with Inkscape (http://www.inkscape.org/) -->

<svg
   xmlns:dc="http://purl.org/dc/elements/1.1/"
   xmlns:cc="http://creativecommons.org/ns#"
   xmlns:rdf="http://www.w3.org/1999/02/22-rdf-syntax-ns#"
   xmlns:svg="http://www.w3.org/2000/svg"
   xmlns="http://www.w3.org/2000/svg"
   xmlns:sodipodi="http://sodipodi.sourceforge.net/DTD/sodipodi-0.dtd"
   xmlns:inkscape="http://www.inkscape.org/namespaces/inkscape"
   width="239.91673mm"
   height="236.59091mm"
   viewBox="0 0 239.91673 236.59091"
   version="1.1"
   id="svg4598"
   inkscape:version="0.92.1 r15371"
   sodipodi:docname="sleepovers.svg">
  <defs
     id="defs4592" />
  <sodipodi:namedview
     id="base"
     pagecolor="#ffffff"
     bordercolor="#666666"
     borderopacity="1.0"
     inkscape:pageopacity="0.0"
     inkscape:pageshadow="2"
     inkscape:zoom="0.98994949"
     inkscape:cx="467.58624"
     inkscape:cy="318.18856"
     inkscape:document-units="mm"
     inkscape:current-layer="layer1"
     showgrid="false"
     inkscape:pagecheckerboard="true"
     inkscape:window-width="1920"
     inkscape:window-height="1017"
     inkscape:window-x="-8"
     inkscape:window-y="1112"
     inkscape:window-maximized="1"
     fit-margin-top="0"
     fit-margin-left="0"
     fit-margin-right="0"
     fit-margin-bottom="0" />
  <metadata
     id="metadata4595">
    <rdf:RDF>
      <cc:Work
         rdf:about="">
        <dc:format>image/svg+xml</dc:format>
        <dc:type
           rdf:resource="http://purl.org/dc/dcmitype/StillImage" />
        <dc:title></dc:title>
      </cc:Work>
    </rdf:RDF>
  </metadata>
  <g
     inkscape:label="Layer 1"
     inkscape:groupmode="layer"
     id="layer1"
     style="display:inline"
     transform="translate(10.377859,-28.2318)">
    <path
       style="display:inline;fill:#FF0080;fill-opacity:0.1;stroke-width:0.29281485"
       d="m 7.2710285,264.31414 c -0.0821,-0.28226 -0.505,-3.37396 -0.94842,-6.87141 -0.44341,-3.49742 -0.91147,-6.52808 -1.03885,-6.73479 -0.16836,-0.27097 -0.66512,0.0513 -1.78948,1.16151 -0.85604,0.84577 -1.7057,1.53728 -1.88768,1.53728 -0.18168,0 -0.67538998,-0.41059 -1.09744998,-0.91147 -0.8386,-0.99667 -0.77086,-1.24362 0.68152998,-2.48251 1.37089,-1.16931 0.8037,-1.40035 -5.275731,-2.14708 -3.11931,-0.38286 -5.91467,-0.8201 -6.2118195,-0.96997 -0.46496,-0.23606 0.8632195,-1.68354 9.51649952,-10.37367 l 10.05672098,-10.09994 1.9033205,0.14269 c 1.86419,0.13961 1.87476,0.13651 0.5122,-0.15493 -0.76471,-0.16421 -1.39084,-0.46291 -1.39084,-0.66513 0,-0.30688 2.70033,-3.08296 2.99851,-3.08296 0.0513,0 3.054949,0.39312 6.672179,0.87246 l 6.576732,0.87247 18.672438,-18.66147 c 10.26979,-10.26386 27.46623,-27.44468 38.21423,-38.17965 19.214722,-19.19151 24.665962,-24.78532 24.665962,-25.31085 0,-0.14581 -23.717232,-23.98204 -52.705042,-52.969556 C 5.4588785,39.348604 2.6580685,36.601082 2.0665385,36.970493 c -0.84681,0.528608 -0.9669,0.380791 -3.456581,-4.232366 -1.95332,-3.620117 -2.32405,-4.506327 -1.88545,-4.506327 0.10254,0 2.08342,1.021289 4.402751,2.269318 l 4.21696,2.269235 -0.17962,1.001784 -0.17962,1.0018 52.5093895,52.510117 c 28.88025,28.880446 52.704532,52.510006 52.942762,52.510006 0.49165,0 5.70548,-5.14218 51.17596,-50.477784 17.91658,-17.863415 32.57558,-32.624461 32.57558,-32.80223 0,-0.17758 3.09909,-3.418723 6.88671,-7.202118 6.00757,-6.000704 6.86751,-6.972206 6.73631,-7.610846 -0.13753,-0.670261 0.45268,-1.161202 7.04694,-5.85628 3.9584,-2.818358 7.3178,-5.168154 7.46509,-5.221843 0.69697,-0.253527 -0.0924,0.997687 -4.883,7.711138 -4.51156,6.326871 -5.23099,7.203548 -5.7952,7.062023 -0.5358,-0.134444 -1.77398,0.970988 -7.36687,6.580908 -3.6974,3.708478 -7.11787,6.919147 -7.60101,7.134904 -1.24093,0.554268 -83.30586,83.068558 -83.30586,83.762238 0,0.15803 19.00737,19.28365 42.23857,42.50061 l 42.23856,42.21249 3.51377,-0.008 c 5.26063,-0.01 10.98061,1.37481 10.98061,2.66235 0,0.32025 0.13341,0.66615 0.29663,0.76675 0.16318,0.10254 0.55015,0.6682 0.86015,1.2618 0.30996,0.59327 1.29503,1.6711 2.18986,2.39575 0.89504,0.72466 1.62781,1.41658 1.62895,1.53729 0,0.12015 -0.38594,0.21965 -0.8591,0.21965 -1.24355,0 -1.35705,0.48346 -0.24841,1.05701 0.52757,0.27305 1.66033,0.96178 2.51681,1.53011 1.24083,0.82422 1.52608,1.15792 1.40392,1.64454 -0.11191,0.44341 0.0717,0.76466 0.68052,1.17124 0.74621,0.50194 1.7782,2.23434 1.7782,2.98578 0,0.15699 0.40236,0.583 0.89399,0.94637 1.24662,0.92172 3.4983,4.05981 3.4983,4.87562 0,0.44548 0.47317,1.08165 1.38053,1.85711 0.75955,0.64871 1.28006,1.28048 1.15729,1.40324 -0.12327,0.12226 -1.84059,0.22272 -3.81717,0.22272 h -3.59404 v 3.59394 c 0,1.97669 -0.10253,3.6943 -0.22478,3.81707 -0.12427,0.12326 -0.7534,-0.40234 -1.40036,-1.16777 -0.81703,-0.96689 -1.39605,-1.39091 -1.89941,-1.39091 -0.82114,0 -3.87834,-2.23329 -4.84277,-3.53779 -0.34692,-0.4701 -0.78419,-0.85398 -0.971,-0.85398 -0.65691,0 -2.32094,-0.99358 -2.98424,-1.78197 -0.42082,-0.50089 -0.86732,-0.74521 -1.19926,-0.65897 -0.52656,0.13754 -1.86986,-1.57022 -3.08975,-3.92935 -0.63948,-1.23706 -1.06194,-1.2072 -1.06194,0.0718 0,0.5635 -0.10254,1.02233 -0.21966,1.01924 -0.12016,-0.004 -0.87862,-0.7924 -1.68365,-1.75344 -0.80574,-0.96177 -1.72758,-1.83053 -2.04968,-1.93145 -0.32229,-0.10253 -0.84885,-0.41876 -1.17136,-0.70615 -0.32228,-0.2874 -0.84576,-0.56968 -1.16304,-0.62717 -1.28385,-0.23298 -2.57036,-5.79877 -2.56964,-11.117 v -3.6966 l -42.26682,-42.26606 -42.26676,-42.26607 -2.65908,2.47964 c -3.74583,3.49334 -78.158131,77.63682 -78.460211,78.17681 -0.203229,0.36337 0.63227,7.92239 1.59444,14.42418 0.14891,1.00897 0.0411,1.23316 -1.19897,2.56217 -0.749279,0.80162 -1.53602,1.45649 -1.748189,1.45649 -0.454721,0 -0.48038,-0.13857 -1.462882,-7.90605 -0.69796,-5.52013 -0.998709,-7.21722 -0.998709,-5.62759 0,0.34079 0.395179,3.55361 0.87861,7.13993 0.48347,3.58634 0.87862,6.71582 0.87862,6.95423 0,0.51835 -12.49332,13.13119 -13.24201,13.36879 -0.28638,0.0925 -0.52141,0.32129 -0.52245,0.51117 -0.004,0.44033 -5.9285305,6.34897 -6.3664105,6.34897 -0.17962,0 -0.39004,-0.23095 -0.46805,-0.5122 z"
       id="path4544"
       inkscape:connector-curvature="0" />
  </g>
</svg>
